<svg xmlns="http://www.w3.org/2000/svg" viewBox="0 0 13 12" width="13" height="12">
	<defs>
		<clipPath clipPathUnits="userSpaceOnUse" id="cp1">
			<path d="M-33 -695L342 -695L342 125L-33 125Z" />
		</clipPath>
		<linearGradient id="grd1" gradientUnits="userSpaceOnUse"  x1="1.603" y1="1.669" x2="11.856" y2="11.437">
			<stop offset="0" stop-color="#ff6f98"  />
			<stop offset="1" stop-color="#f53d62"  />
		</linearGradient>
	</defs>
	<style>
		tspan { white-space:pre }
		.shp0 { fill: url(#grd1) } 
	</style>
	<g id="18 - Edit Profile" clip-path="url(#cp1)">
		<g id="Edit Profile">
			<g id="Classified Information">
				<g id="Item">
					<g id="Gender">
						<path id="Icon" class="shp0" d="M9.93 11C9.93 11.24 9.73 11.44 9.49 11.44C9.25 11.44 9.05 11.24 9.05 11C9.05 10.47 8.84 10.08 8.54 9.79C8.08 9.35 7.43 9.15 7.05 9.12C6.73 9.09 6.44 8.96 6.23 8.75L6.23 8.75C6.01 8.54 5.88 8.25 5.88 7.93L5.88 7.74C5.88 7.58 5.98 7.43 6.12 7.35C6.41 7.16 6.56 6.77 6.69 6.45C6.81 6.16 6.91 5.91 7.11 5.73L7.11 5.72L7.13 5.71C7.24 5.6 7.39 5.41 7.47 5.21C7.53 5.05 7.54 4.88 7.44 4.76L7.43 4.75L7.42 4.75C7.33 4.63 7.29 4.4 7.34 4.25C7.42 3.98 7.49 3.72 7.52 3.47C7.54 3.23 7.55 3 7.52 2.8L7.51 2.8C7.47 2.54 7.27 2.07 7 1.74C6.84 1.58 6.68 1.44 6.54 1.47C6.39 1.49 6.24 1.47 6.1 1.41C5.97 1.34 5.85 1.24 5.77 1.11C5.7 1.01 5.53 0.95 5.34 0.92C5.08 0.87 4.79 0.88 4.57 0.88C4.04 0.89 3.6 0.99 3.24 1.23C2.93 1.44 2.69 1.76 2.54 2.21C2.42 2.56 2.35 2.95 2.36 3.32C2.36 3.67 2.42 4 2.54 4.27C2.56 4.33 2.58 4.39 2.58 4.44C2.58 4.56 2.54 4.67 2.46 4.76L2.46 4.76L2.45 4.78C2.36 4.89 2.38 5.05 2.43 5.21L2.43 5.2C2.51 5.41 2.67 5.61 2.78 5.71L2.78 5.71L2.82 5.75C3 5.92 3.09 6.17 3.21 6.45C3.34 6.79 3.51 7.2 3.83 7.38C3.96 7.47 4.04 7.61 4.04 7.76L4.04 7.93C4.04 8.25 3.91 8.54 3.7 8.75C3.49 8.96 3.2 9.09 2.89 9.12C2.5 9.15 1.85 9.35 1.39 9.79C1.09 10.08 0.88 10.47 0.88 11C0.88 11.24 0.68 11.44 0.43 11.44C0.19 11.44 0 11.24 0 11C0 10.2 0.33 9.6 0.78 9.16C1.41 8.56 2.29 8.28 2.81 8.24C2.92 8.23 3.01 8.18 3.08 8.12C3.12 8.08 3.14 8.03 3.15 7.99C2.74 7.65 2.55 7.17 2.4 6.78C2.32 6.59 2.26 6.44 2.21 6.39L2.2 6.38L2.2 6.37C1.7 5.92 1.27 5.06 1.65 4.4C1.54 4.06 1.48 3.7 1.48 3.33C1.48 2.86 1.55 2.37 1.7 1.93C1.92 1.29 2.28 0.82 2.76 0.51C3.25 0.17 3.86 0.01 4.55 0C4.8 0 5.15 0 5.49 0.05C5.88 0.13 6.25 0.28 6.47 0.59C6.94 0.55 7.34 0.81 7.66 1.18C7.81 1.35 7.94 1.56 8.06 1.77C8.34 1.71 8.66 1.73 8.97 1.79L9.01 1.79C9.46 1.89 9.9 2.1 10.11 2.34C10.5 2.33 10.85 2.55 11.11 2.86C11.43 3.24 11.67 3.8 11.72 4.13C11.78 4.5 11.71 4.8 11.64 5.09C11.61 5.22 11.58 5.36 11.58 5.47C11.79 5.81 11.77 6.18 11.64 6.51C11.53 6.79 11.36 7.03 11.15 7.24C11.08 7.31 11.03 7.47 11 7.55C10.87 7.87 10.72 8.23 10.41 8.52C10.42 8.54 10.44 8.58 10.45 8.6C10.48 8.63 10.53 8.64 10.61 8.65C11.05 8.69 11.8 8.92 12.33 9.43C12.72 9.8 13 10.32 13 11C13 11.24 12.8 11.44 12.56 11.44C12.32 11.44 12.12 11.24 12.12 11C12.12 10.59 11.95 10.28 11.72 10.06C11.36 9.71 10.84 9.56 10.53 9.53C10.19 9.5 9.95 9.36 9.77 9.15C9.59 8.92 9.51 8.63 9.51 8.32C9.51 8.16 9.6 8.01 9.73 7.94C9.95 7.79 10.08 7.48 10.18 7.23C10.28 6.98 10.37 6.76 10.54 6.61L10.55 6.6L10.56 6.59C10.64 6.51 10.76 6.36 10.82 6.2C10.86 6.09 10.87 5.99 10.81 5.92C10.74 5.84 10.7 5.74 10.7 5.64C10.68 5.37 10.73 5.13 10.79 4.9C10.84 4.69 10.89 4.46 10.86 4.27C10.82 4.05 10.66 3.69 10.44 3.43C10.33 3.3 10.22 3.21 10.14 3.22C10 3.24 9.86 3.22 9.73 3.17L9.71 3.15C9.6 3.09 9.5 3.02 9.44 2.9L9.43 2.9C9.37 2.81 9.12 2.72 8.82 2.65L8.8 2.64C8.65 2.62 8.49 2.6 8.37 2.6L8.39 2.67L8.38 2.67C8.42 2.97 8.42 3.27 8.39 3.58C8.36 3.82 8.31 4.08 8.23 4.35C8.64 5.02 8.24 5.86 7.73 6.35L7.71 6.37L7.71 6.37L7.7 6.38C7.65 6.42 7.59 6.59 7.51 6.78C7.35 7.17 7.17 7.63 6.77 7.96C6.78 8.03 6.8 8.08 6.85 8.12L6.85 8.12L6.85 8.13C6.92 8.18 7.01 8.23 7.11 8.24C7.64 8.28 8.52 8.56 9.15 9.16C9.6 9.6 9.93 10.2 9.93 11Z" />
					</g>
				</g>
			</g>
		</g>
	</g>
</svg>