<svg xmlns="http://www.w3.org/2000/svg" viewBox="0 0 12 14" width="12" height="14">
	<defs>
		<clipPath clipPathUnits="userSpaceOnUse" id="cp1">
			<path d="M-33 -476L342 -476L342 344L-33 344Z" />
		</clipPath>
		<linearGradient id="grd1" gradientUnits="userSpaceOnUse"  x1="1.48" y1="2.001" x2="10.944" y2="13.718">
			<stop offset="0" stop-color="#ff6f98"  />
			<stop offset="1" stop-color="#f53d62"  />
		</linearGradient>
	</defs>
	<style>
		tspan { white-space:pre }
		.shp0 { fill: url(#grd1) } 
	</style>
	<g id="18 - Edit Profile" clip-path="url(#cp1)">
		<g id="Edit Profile">
			<g id="Profile">
				<g id="Item">
					<g id="Biography">
						<path id="Icon" fill-rule="evenodd" class="shp0" d="M10.58 13.72L1.41 13.72C1.03 13.72 0.68 13.57 0.41 13.3C0.15 13.03 0 12.67 0 12.3L0 1.41C0 1.04 0.15 0.68 0.41 0.41C0.68 0.15 1.03 0 1.41 0L7.65 0C7.8 0 7.92 0.05 8.03 0.16L11.84 3.97C11.94 4.07 12 4.21 12 4.34L12 12.3C12 12.67 11.85 13.03 11.58 13.3L11.57 13.31C11.3 13.57 10.95 13.72 10.58 13.72ZM1.41 1.05C1.31 1.05 1.22 1.09 1.16 1.16C1.09 1.23 1.05 1.32 1.05 1.41L1.05 12.3C1.05 12.39 1.09 12.49 1.16 12.55L1.15 12.56C1.22 12.62 1.32 12.66 1.41 12.66L10.58 12.66C10.67 12.66 10.76 12.62 10.84 12.56L10.84 12.55C10.9 12.49 10.94 12.4 10.94 12.3L10.94 4.67L8.54 4.67C8.22 4.67 7.91 4.53 7.69 4.31L7.68 4.28C7.46 4.06 7.34 3.76 7.34 3.46L7.34 1.05L1.41 1.05ZM7.97 1.59L7.97 3.46C7.97 3.6 8.03 3.74 8.12 3.85L8.14 3.86C8.25 3.97 8.39 4.03 8.54 4.03L10.4 4.03L7.97 1.59ZM9.07 10.49L2.92 10.49C2.76 10.49 2.61 10.35 2.61 10.18C2.61 10 2.75 9.86 2.92 9.86L9.07 9.86C9.24 9.86 9.38 10 9.38 10.18C9.38 10.35 9.24 10.49 9.07 10.49ZM9.07 8.27L2.92 8.27C2.75 8.27 2.61 8.12 2.61 7.95C2.61 7.78 2.75 7.64 2.92 7.64L9.07 7.64C9.24 7.64 9.38 7.78 9.38 7.95C9.38 8.12 9.24 8.27 9.07 8.27ZM9.07 6.03L2.92 6.03C2.75 6.03 2.61 5.89 2.61 5.72C2.61 5.55 2.75 5.41 2.92 5.41L9.07 5.41C9.24 5.41 9.38 5.55 9.38 5.72C9.38 5.9 9.24 6.03 9.07 6.03Z" />
					</g>
				</g>
			</g>
		</g>
	</g>
</svg>