<svg xmlns="http://www.w3.org/2000/svg" viewBox="0 0 80 80" width="80" height="80">
	<defs>
		<clipPath clipPathUnits="userSpaceOnUse" id="cp1">
			<path d="M-148 -98L227 -98L227 722L-148 722Z" />
		</clipPath>
		<clipPath clipPathUnits="userSpaceOnUse" id="cp2">
			<path d="M40 80C17.88 80 0 62.12 0 40C0 17.88 17.88 0 40 0C62.12 0 80 17.88 80 40C80 62.12 62.12 80 40 80Z" />
		</clipPath>
	</defs>
	<style>
		tspan { white-space:pre }
		.shp0 { fill: #d8d8d8 } 
	</style>
	<g id="18 - Edit Profile" clip-path="url(#cp1)">
		<g id="Edit Profile">
			<g id="Page Head">
				<g id="Change Photo">
					<g id="Image">
						<g id="Image" clip-path="url(#cp2)">
							<path id="Photo Here copy" class="shp0" d="M40 80C17.88 80 0 62.12 0 40C0 17.88 17.88 0 40 0C62.12 0 80 17.88 80 40C80 62.12 62.12 80 40 80Z" />
						</g>
					</g>
				</g>
			</g>
		</g>
	</g>
</svg>